<svg xmlns="http://www.w3.org/2000/svg" viewBox="0 0 100 100"><defs><style>.a{fill:#174496;fill-rule:evenodd;}.b,.c,.d,.e{fill:none;stroke-linecap:round;stroke-width:5px;}.b,.c{stroke:#738ab9;}.b,.d{stroke-linejoin:round;}.c,.e{stroke-miterlimit:10;}.d,.e{stroke:#1e4490;}</style></defs><path class="a" d="M0,6.31H0c7.74,0,11,5.4,14.49,11.19h0L43,66.34c1.34,2.44,2.67,5.38,2.63,8.14h0c-.11,7.18-9.44,9.81-15,10.09h0a25.8,25.8,0,0,1-11.75-2.39h0L16.56,85.1c1.32,5.63,6.54,12.48,13.71,12.42h0c12.45-.08,19-11.47,24-20.74h0L63.53,59.6,36.62,13.46c-2.49-4.13,1.6-7.14,5.93-7.16h0l1-3.82H1Z"/><path class="b" d="M78.82,22.53A13.49,13.49,0,0,0,65.32,9"/><polygon class="c" points="62.51 9.03 66.72 11.45 66.72 6.6 62.51 9.03"/><path class="d" d="M78.82,22.53A13.48,13.48,0,0,1,92.32,9"/><polygon class="e" points="95.12 9.03 90.92 6.6 90.92 11.45 95.12 9.03"/><path class="d" d="M78.82,22.53A13.49,13.49,0,0,1,65.32,36"/></svg>